REM DIRINDEX 1\6,1\2\7,1\2\8,1\2\9,1\3\10,1\3\11,1\4\12,1\4\13,1\4\14,1\5\15,1\5\16,1\5\17
REM DIRNAME cjc040,folder01,folder02,folder03,folder04,folder05,folder06,folder07,folder08,folder09,folder10,folder11,folder12,folder13,folder14,folder15,folder16
TITLE ""
FILE "P2Q_t_0251-0268.mp3" MP3
  TRACK 01 AUDIO
    TITLE "10:cjc040_2151"
    INDEX 01 00:00:00
  TRACK 02 AUDIO
    TITLE "0:"
    INDEX 01 00:00:62
  TRACK 03 AUDIO
    TITLE "11:cjc040_2152"
    INDEX 01 00:01:36
  TRACK 04 AUDIO
    TITLE "0:"
    INDEX 01 00:03:43
  TRACK 05 AUDIO
    TITLE "10:cjc040_2153"
    INDEX 01 00:04:21
  TRACK 06 AUDIO
    TITLE "0:"
    INDEX 01 00:05:46
  TRACK 07 AUDIO
    TITLE "11:cjc040_2154"
    INDEX 01 00:06:30
  TRACK 08 AUDIO
    TITLE "0:"
    INDEX 01 00:09:49
  TRACK 09 AUDIO
    TITLE "10:cjc040_2155"
    INDEX 01 00:10:27
  TRACK 10 AUDIO
    TITLE "0:"
    INDEX 01 00:11:35
  TRACK 11 AUDIO
    TITLE "11:cjc040_2156"
    INDEX 01 00:12:14
  TRACK 12 AUDIO
    TITLE "0:"
    INDEX 01 00:13:22
  TRACK 13 AUDIO
    TITLE "10:cjc040_2157"
    INDEX 01 00:13:73
  TRACK 14 AUDIO
    TITLE "0:"
    INDEX 01 00:15:05
  TRACK 15 AUDIO
    TITLE "11:cjc040_2158"
    INDEX 01 00:15:56
  TRACK 16 AUDIO
    TITLE "0:"
    INDEX 01 00:16:71
  TRACK 17 AUDIO
    TITLE "10:cjc040_2159"
    INDEX 01 00:17:47
  TRACK 18 AUDIO
    TITLE "0:"
    INDEX 01 00:19:01
  TRACK 19 AUDIO
    TITLE "11:cjc040_2160"
    INDEX 01 00:19:56
  TRACK 20 AUDIO
    TITLE "0:"
    INDEX 01 00:24:31
  TRACK 21 AUDIO
    TITLE "10:cjc040_2161"
    INDEX 01 00:25:03
  TRACK 22 AUDIO
    TITLE "0:"
    INDEX 01 00:26:13
  TRACK 23 AUDIO
    TITLE "11:cjc040_2162"
    INDEX 01 00:26:69
  TRACK 24 AUDIO
    TITLE "0:"
    INDEX 01 00:29:31
  TRACK 25 AUDIO
    TITLE "10:cjc040_2163"
    INDEX 01 00:30:14
  TRACK 26 AUDIO
    TITLE "0:"
    INDEX 01 00:31:41
  TRACK 27 AUDIO
    TITLE "11:cjc040_2164"
    INDEX 01 00:32:21
  TRACK 28 AUDIO
    TITLE "0:"
    INDEX 01 00:35:29
  TRACK 29 AUDIO
    TITLE "10:cjc040_2165"
    INDEX 01 00:36:09
  TRACK 30 AUDIO
    TITLE "0:"
    INDEX 01 00:37:57
  TRACK 31 AUDIO
    TITLE "11:cjc040_2166"
    INDEX 01 00:38:39
  TRACK 32 AUDIO
    TITLE "0:"
    INDEX 01 00:40:58
  TRACK 33 AUDIO
    TITLE "10:cjc040_2167"
    INDEX 01 00:41:38
  TRACK 34 AUDIO
    TITLE "0:"
    INDEX 01 00:42:43
  TRACK 35 AUDIO
    TITLE "11:cjc040_2168"
    INDEX 01 00:43:21
  TRACK 36 AUDIO
    TITLE "0:"
    INDEX 01 00:47:28
  TRACK 37 AUDIO
    TITLE "10:cjc040_2169"
    INDEX 01 00:48:06
  TRACK 38 AUDIO
    TITLE "0:"
    INDEX 01 00:49:21
  TRACK 39 AUDIO
    TITLE "11:cjc040_2170"
    INDEX 01 00:50:03
  TRACK 40 AUDIO
    TITLE "0:"
    INDEX 01 00:51:05
  TRACK 41 AUDIO
    TITLE "10:cjc040_2171"
    INDEX 01 00:51:60
  TRACK 42 AUDIO
    TITLE "0:"
    INDEX 01 00:53:02
  TRACK 43 AUDIO
    TITLE "11:cjc040_2172"
    INDEX 01 00:53:57
  TRACK 44 AUDIO
    TITLE "0:"
    INDEX 01 00:56:16
  TRACK 45 AUDIO
    TITLE "10:cjc040_2173"
    INDEX 01 00:56:72
  TRACK 46 AUDIO
    TITLE "0:"
    INDEX 01 00:58:07
  TRACK 47 AUDIO
    TITLE "11:cjc040_2174"
    INDEX 01 00:58:67
  TRACK 48 AUDIO
    TITLE "0:"
    INDEX 01 01:02:28
  TRACK 49 AUDIO
    TITLE "10:cjc040_2175"
    INDEX 01 01:03:10
  TRACK 50 AUDIO
    TITLE "0:"
    INDEX 01 01:04:35
  TRACK 51 AUDIO
    TITLE "11:cjc040_2176"
    INDEX 01 01:05:11
  TRACK 52 AUDIO
    TITLE "0:"
    INDEX 01 01:06:08
  TRACK 53 AUDIO
    TITLE "10:cjc040_2177"
    INDEX 01 01:06:63
  TRACK 54 AUDIO
    TITLE "0:"
    INDEX 01 01:07:68
  TRACK 55 AUDIO
    TITLE "11:cjc040_2178"
    INDEX 01 01:08:44
  TRACK 56 AUDIO
    TITLE "0:"
    INDEX 01 01:10:67
  TRACK 57 AUDIO
    TITLE "10:cjc040_2179"
    INDEX 01 01:11:45
  TRACK 58 AUDIO
    TITLE "0:"
    INDEX 01 01:12:62
  TRACK 59 AUDIO
    TITLE "11:cjc040_2180"
    INDEX 01 01:13:38
  TRACK 60 AUDIO
    TITLE "0:"
    INDEX 01 01:15:44
  TRACK 61 AUDIO
    TITLE "10:cjc040_2181"
    INDEX 01 01:16:24
  TRACK 62 AUDIO
    TITLE "0:"
    INDEX 01 01:17:41
  TRACK 63 AUDIO
    TITLE "11:cjc040_2182"
    INDEX 01 01:18:23
  TRACK 64 AUDIO
    TITLE "0:"
    INDEX 01 01:20:28
  TRACK 65 AUDIO
    TITLE "10:cjc040_2183"
    INDEX 01 01:21:06
  TRACK 66 AUDIO
    TITLE "0:"
    INDEX 01 01:22:23
  TRACK 67 AUDIO
    TITLE "11:cjc040_2184"
    INDEX 01 01:23:05
  TRACK 68 AUDIO
    TITLE "0:"
    INDEX 01 01:25:49
  TRACK 69 AUDIO
    TITLE "10:cjc040_2185"
    INDEX 01 01:26:29
  TRACK 70 AUDIO
    TITLE "0:"
    INDEX 01 01:28:02
  TRACK 71 AUDIO
    TITLE "11:cjc040_2186"
    INDEX 01 01:28:59
  TRACK 72 AUDIO
    TITLE "0:"
    INDEX 01 01:31:26
